<?xml version="1.0" encoding="UTF-8" standalone="no"?>
<!-- Created with Inkscape (http://www.inkscape.org/) -->

<svg
   xmlns:dc="http://purl.org/dc/elements/1.1/"
   xmlns:cc="http://creativecommons.org/ns#"
   xmlns:rdf="http://www.w3.org/1999/02/22-rdf-syntax-ns#"
   xmlns:svg="http://www.w3.org/2000/svg"
   xmlns="http://www.w3.org/2000/svg"
   xmlns:sodipodi="http://sodipodi.sourceforge.net/DTD/sodipodi-0.dtd"
   xmlns:inkscape="http://www.inkscape.org/namespaces/inkscape"
   width="210mm"
   height="297mm"
   viewBox="0 0 744.09448819 1052.3622047"
   id="svg3410"
   version="1.1"
   inkscape:version="0.91 r13725"
   sodipodi:docname="hercules-vector-only.svg">
  <defs
     id="defs3412" />
  <sodipodi:namedview
     id="base"
     pagecolor="#ffffff"
     bordercolor="#666666"
     borderopacity="1.0"
     inkscape:pageopacity="0.0"
     inkscape:pageshadow="2"
     inkscape:zoom="0.35"
     inkscape:cx="375"
     inkscape:cy="520"
     inkscape:document-units="px"
     inkscape:current-layer="layer1"
     showgrid="false"
     inkscape:window-width="1366"
     inkscape:window-height="744"
     inkscape:window-x="0"
     inkscape:window-y="24"
     inkscape:window-maximized="1" />
  <metadata
     id="metadata3415">
    <rdf:RDF>
      <cc:Work
         rdf:about="">
        <dc:format>image/svg+xml</dc:format>
        <dc:type
           rdf:resource="http://purl.org/dc/dcmitype/StillImage" />
        <dc:title></dc:title>
      </cc:Work>
    </rdf:RDF>
  </metadata>
  <g
     inkscape:label="Layer 1"
     inkscape:groupmode="layer"
     id="layer1">
    <path
       style="fill:#000000"
       d="m 93.083601,822.09955 c 1.06292,-1.98609 2.76386,-4.12483 3.77986,-4.75275 3.505419,-2.16653 2.0071,-4.85325 -1.62304,-2.91047 -5.97689,3.19877 -5.96721,-0.12924 0.0206,-7.10127 3.16363,-3.68361 16.098989,-17.2127 28.745239,-30.06475 12.64625,-12.85206 22.99319,-23.81489 22.99319,-24.36186 0,-0.54705 -3.55201,-3.30224 -7.89336,-6.12273 -4.34134,-2.82049 -12.07218,-8.2046 -17.17964,-11.96457 -5.10746,-3.76005 -12.55612,-9.23137 -16.55257,-12.15851 -11.442319,-8.38078 -34.346199,-9.90118 -47.315969,-3.14102 -4.26269,2.22184 -9.48808,4.03977 -11.612,4.03977 -6.83057,0 -24.64675,-10.93692 -36.24155,-22.24781 -22.14525,-21.60296 -22.19547,-22.80626 -5.3105296,-127.26161 4.45828,-27.58032 9.0872596,-56.79483 10.2866296,-64.92112 2.32507,-15.75362 4.75802,-19.91245 27.75493,-47.44306 13.33681,-15.96609 18.40515,-23.33164 19.33471,-28.09815 5.9997,-30.76432 25.13795,-65.75619 49.677589,-90.82914 22.79061,-23.28599 42.88341,-32.26569 72.19695,-32.26569 30.77133,0 55.73791,11.96214 82.57822,39.56527 5.06906,5.21311 10.81771,9.47845 12.77473,9.47845 1.95705,0 7.83883,-2.41422 13.07063,-5.36482 11.43831,-6.45102 21.49076,-7.71064 68.62689,-8.59927 18.56165,-0.34995 37.92729,-1.12154 43.03475,-1.71459 5.10747,-0.59312 26.00164,-2.75958 46.43149,-4.81447 20.42985,-2.05483 41.39729,-4.23404 46.59431,-4.8426 11.33314,-1.32708 17.5602,1.11122 44.46267,17.40987 39.05917,23.66365 104.03297,66.19051 130.03534,85.11106 25.36989,18.46045 60.2425,52.79648 67.61797,66.57763 2.41145,4.50581 2.30069,5.29346 -1.24195,8.8361 -5.22162,5.22169 -13.2814,3.50912 -25.94067,-5.51194 -28.58153,-20.36714 -39.50038,-27.09688 -67.44406,-41.56815 -29.24634,-15.14594 -74.9715,-40.90266 -110.11407,-62.02657 l -16.32251,-9.81126 -1.09705,5.48522 c -0.60338,3.01691 -1.7237,5.87261 -2.4896,6.34593 -0.76589,0.47339 -7.42418,-1.36626 -14.7962,-4.088 -12.66908,-4.67741 -14.03009,-4.82162 -24.83352,-2.63182 -6.28641,1.27419 -20.41433,5.33339 -31.39538,9.02038 -24.88228,8.35441 -24.85571,8.25971 -7.75971,27.6502 5.03395,5.70957 9.30943,12.35088 9.50104,14.75849 0.19159,2.4076 1.74602,7.32278 3.4543,10.92269 2.67999,5.64765 3.75658,6.38194 7.85035,5.3545 3.7971,-0.95305 4.52295,-0.61362 3.63522,1.69975 -0.88164,2.29759 1.49709,3.4791 11.59511,5.75956 23.50497,5.30809 40.53706,16.47206 51.42634,33.70831 l 5.26693,8.33694 13.92949,-0.007 c 20.77902,-0.0108 26.62255,-2.19344 32.4389,-12.1183 5.51862,-9.4168 12.04458,-14.50061 16.44603,-12.81159 5.05312,1.93908 5.52266,7.83321 1.18327,14.85447 -5.17265,8.36953 -3.4986,10.40668 2.20841,2.68747 5.46229,-7.38814 14.50945,-13.02824 20.89835,-13.02824 16.69553,0 -2.39655,23.50838 -27.95813,34.4252 -3.92868,1.6779 -17.37837,6.62552 -29.8883,10.99473 -19.23819,6.71922 -23.94365,7.72494 -30.51769,6.52279 -4.27487,-0.78171 -8.85937,-1.00424 -10.18778,-0.49443 -1.3284,0.50974 -7.51266,-2.55263 -13.74281,-6.80528 -59.41926,-40.55885 -68.47524,-46.16502 -77.80605,-48.16616 -10.65081,-2.28416 -13.08237,-1.65112 -13.08237,3.40578 0,5.63416 -4.58334,7.69897 -20.69557,9.32324 l -15.40221,1.55271 -17.69118,-14.71302 c -21.53898,-17.91307 -32.33414,-22.26582 -46.09373,-18.58571 -14.73849,3.94196 -15.27909,5.03558 -15.18583,30.72175 0.0726,20.00425 1.17613,32.78824 4.76666,55.22216 0.71355,4.45838 0.13019,8.24925 -1.71485,11.1436 -1.53796,2.4126 -4.6409,11.05463 -6.89541,19.20446 -4.48368,16.20812 -4.54776,14.11485 1.96311,64.11566 3.88139,29.80749 6.41866,39.79144 10.18162,40.06361 1.00773,0.073 3.92166,1.09173 6.47539,2.26407 2.55373,1.17233 9.31135,3.43039 15.01693,5.0179 11.7297,3.26366 26.19889,11.86522 24.52234,14.57792 -0.61091,0.98846 -0.25312,1.26717 0.79509,0.61935 1.04822,-0.64782 8.4903,4.63086 16.53799,11.73045 8.04767,7.09965 18.81097,15.16563 23.91844,17.92446 10.81123,5.83976 12.00548,7.24488 12.04374,14.17016 0.0214,3.8534 -1.25543,5.70485 -5.07903,7.36548 -5.83315,2.53334 -39.75283,24.82581 -52.00733,34.17988 -4.50582,3.43937 -14.02717,9.71973 -21.15854,13.95646 -11.85634,7.04367 -13.2191,7.45007 -15.92173,4.74743 -2.70262,-2.70265 -2.69204,-3.35782 0.1237,-7.65506 1.69356,-2.58467 7.88181,-8.27023 13.75172,-12.63459 5.86989,-4.36429 13.96815,-11.00397 17.99615,-14.75471 6.29117,-5.85817 6.97916,-7.23462 4.88006,-9.76391 -2.0243,-2.43911 -2.00621,-3.47168 0.10531,-6.0179 3.61438,-4.35822 14.24,-8.4413 18.47201,-7.0981 7.80158,2.47614 3.17971,-4.49313 -7.10105,-10.70759 -5.87358,-3.55039 -18.11974,-11.17004 -27.21366,-16.93243 -9.37437,-5.94006 -18.66705,-10.47703 -21.45918,-10.47703 -5.73351,0 -19.11681,-8.165 -26.7594,-16.32556 -2.92638,-3.12476 -6.47839,-5.23706 -7.89335,-4.69413 -1.49834,0.57497 -2.57265,-0.19447 -2.57265,-1.84262 0,-1.55641 -0.89723,-3.12888 -1.99385,-3.49441 -1.09662,-0.36553 -4.88448,-12.76275 -8.41748,-27.54936 -9.14182,-38.26113 -9.75831,-40.29019 -13.31782,-43.83397 -10.68589,-10.63852 -39.33835,-44.75883 -39.37445,-46.88839 -0.0343,-2.02562 -0.9001,-1.93038 -4.22206,0.46461 -2.29836,1.65699 -8.98449,5.53191 -14.85807,8.61094 -5.87358,3.07897 -10.67924,6.27308 -10.67924,7.09796 0,2.88437 23.45293,35.70506 45.00868,62.9865 5.73467,7.25796 8.15219,11.60788 6.45118,11.60788 -3.5579,0 -6.29514,7.19705 -8.82961,23.21576 -1.13133,7.15045 -3.20892,16.76178 -4.61685,21.35844 -3.16435,10.3312 -6.43999,39.85161 -6.43999,58.0378 0,18.38901 3.80173,25.6865 16.9981,32.62818 5.4879,2.88686 13.72864,8.00197 18.31274,11.36707 l 8.33475,6.11841 -10.21492,-0.79919 c -7.12582,-0.5575 -15.74782,-3.4221 -28.51081,-9.47258 -11.68337,-5.53858 -17.91353,-7.67692 -17.23795,-5.91639 1.8593,4.84523 -1.88183,2.9875 -11.62542,-5.77284 -9.56369,-8.59853 -11.162,-12.72929 -7.54236,-19.49269 1.06966,-1.99864 4.41328,-15.52489 7.43031,-30.05835 3.01703,-14.53346 6.73858,-30.12533 8.27012,-34.64867 3.10195,-9.16142 3.52246,-21.64788 1.08282,-32.1527 -1.36099,-5.8602 -11.21135,-19.3364 -23.95492,-32.7726 -3.36654,-3.54952 -5.55379,-0.7208 -6.25689,8.09175 l -0.58843,7.37526 -8.26181,-12.94709 c -4.54401,-7.1209 -8.58223,-13.36362 -8.97384,-13.87283 -1.54283,-2.00585 -5.98009,6.58282 -5.98009,11.57497 0,6.74039 -11.7611,23.34891 -25.61221,36.16852 -5.74798,5.31997 -10.06751,9.96952 -9.59897,10.33241 0.46854,0.3629 10.88108,9.27185 23.13899,19.79758 22.31318,19.16014 36.20211,33.02716 36.21153,36.15449 0.007,2.27149 -32.16684,34.98068 -54.28206,55.18554 -17.850119,16.30815 -23.999859,20.26266 -20.058639,12.89846 z"
       id="path3399"
       inkscape:connector-curvature="0" />
  </g>
</svg>
